<svg xmlns="http://www.w3.org/2000/svg" viewBox="0 0 192 192">
  <rect width="192" height="192" rx="40" fill="#3D5A3E"/>
  <rect x="30" y="120" width="40" height="52" fill="#C8B89A" rx="3"/>
  <polygon points="50,80 30,120 70,120" fill="#5A4A35"/>
  <rect x="37" y="128" width="12" height="12" fill="#D4A843" rx="2"/>
  <rect x="57" y="128" width="12" height="12" fill="#D4A843" rx="2"/>
  <rect x="37" y="148" width="10" height="24" fill="#A09070"/>
  <rect x="75" y="100" width="50" height="72" fill="#B8A88A" rx="3"/>
  <polygon points="100,68 75,100 125,100" fill="#5A4A35"/>
  <rect x="81" y="110" width="11" height="11" fill="#D4A843" rx="2"/>
  <rect x="97" y="110" width="11" height="11" fill="#D4A843" rx="2"/>
  <rect x="81" y="128" width="11" height="11" fill="#D4A843" rx="2"/>
  <rect x="97" y="128" width="11" height="11" fill="#D4A843" rx="2"/>
  <rect x="88" y="148" width="14" height="24" fill="#A09070"/>
  <rect x="135" y="80" width="35" height="92" fill="#C8B89A" rx="3"/>
  <rect x="140" y="88" width="9" height="9" fill="#D4A843" rx="2"/>
  <rect x="154" y="88" width="9" height="9" fill="#D4A843" rx="2"/>
  <rect x="140" y="104" width="9" height="9" fill="#D4A843" rx="2"/>
  <rect x="154" y="104" width="9" height="9" fill="#D4A843" rx="2"/>
  <rect x="140" y="120" width="9" height="9" fill="#D4A843" rx="2"/>
  <rect x="154" y="120" width="9" height="9" fill="#D4A843" rx="2"/>
  <rect x="20" y="168" width="152" height="6" fill="#8B7355" rx="2"/>
</svg>
